<?xml version="1.0" encoding="UTF-8" standalone="no"?>
<!DOCTYPE svg PUBLIC "-//W3C//DTD SVG 1.1//EN" "http://www.w3.org/Graphics/SVG/1.1/DTD/svg11.dtd">
<svg width="100%" height="100%" viewBox="0 0 3300 2200" version="1.1" xmlns="http://www.w3.org/2000/svg" xmlns:xlink="http://www.w3.org/1999/xlink" xml:space="preserve" xmlns:serif="http://www.serif.com/" style="fill-rule:evenodd;clip-rule:evenodd;">
    <g id="Notes">
        <rect id="artboard" x="0" y="0" width="3300" height="2200" style="fill:white;"/>
        <path d="M263,292L3036,292" style="fill:none;fill-rule:nonzero;stroke:black;stroke-width:0.5px;"/>
        <g transform="matrix(1,0,0,1,263,322)">
            <text x="0px" y="0px" style="font-family:'SFProDisplay-Bold', 'SF Pro Display';font-weight:700;font-size:16px;">W<tspan x="14.508px " y="0px ">e</tspan>ight/Scale V<tspan x="111.125px " y="0px ">a</tspan>riations</text>
        </g>
        <g transform="matrix(1,0,0,1,559.711,322)">
            <text x="-30.398px" y="0px" style="font-family:'SFProDisplay-Regular', 'SF Pro Display';font-size:16px;">Ultr<tspan x="-6.398px " y="0px ">a</tspan>light</text>
        </g>
        <g transform="matrix(1,0,0,1,856.422,322)">
            <text x="-14.809px" y="0px" style="font-family:'SFProDisplay-Regular', 'SF Pro Display';font-size:16px;">Thin</text>
        </g>
        <g transform="matrix(1,0,0,1,1153.13,322)">
            <text x="-16.945px" y="0px" style="font-family:'SFProDisplay-Regular', 'SF Pro Display';font-size:16px;">Light</text>
        </g>
        <g transform="matrix(1,0,0,1,1449.84,322)">
            <text x="-25.613px" y="0px" style="font-family:'SFProDisplay-Regular', 'SF Pro Display';font-size:16px;">Regular</text>
        </g>
        <g transform="matrix(1,0,0,1,1746.56,322)">
            <text x="-27.449px" y="0px" style="font-family:'SFProDisplay-Regular', 'SF Pro Display';font-size:16px;">Medium</text>
        </g>
        <g transform="matrix(1,0,0,1,2043.27,322)">
            <text x="-31.645px" y="0px" style="font-family:'SFProDisplay-Regular', 'SF Pro Display';font-size:16px;">Semibold</text>
        </g>
        <g transform="matrix(1,0,0,1,2339.98,322)">
            <text x="-15.145px" y="0px" style="font-family:'SFProDisplay-Regular', 'SF Pro Display';font-size:16px;">Bold</text>
        </g>
        <g transform="matrix(1,0,0,1,2636.69,322)">
            <text x="-21.461px" y="0px" style="font-family:'SFProDisplay-Regular', 'SF Pro Display';font-size:16px;">Heavy</text>
        </g>
        <g transform="matrix(1,0,0,1,2933.4,322)">
            <text x="-18.375px" y="0px" style="font-family:'SFProDisplay-Regular', 'SF Pro Display';font-size:16px;">Black</text>
        </g>
        <path d="M263,1903L3036,1903" style="fill:none;fill-rule:nonzero;stroke:black;stroke-width:0.5px;"/>
        <g transform="matrix(1,0,0,1,263,1933)">
            <path d="M9.248,0.83C13.555,0.83 17.139,-2.744 17.139,-7.051C17.139,-11.357 13.545,-14.932 9.238,-14.932C4.941,-14.932 1.367,-11.357 1.367,-7.051C1.367,-2.744 4.951,0.83 9.248,0.83ZM9.248,-0.654C5.703,-0.654 2.871,-3.496 2.871,-7.051C2.871,-10.605 5.693,-13.447 9.238,-13.447C12.793,-13.447 15.635,-10.605 15.645,-7.051C15.654,-3.496 12.803,-0.654 9.248,-0.654ZM9.229,-3.428C9.697,-3.428 9.971,-3.74 9.971,-4.258L9.971,-6.318L12.197,-6.318C12.695,-6.318 13.037,-6.572 13.037,-7.041C13.037,-7.52 12.715,-7.783 12.197,-7.783L9.971,-7.783L9.971,-10.01C9.971,-10.527 9.697,-10.85 9.229,-10.85C8.76,-10.85 8.506,-10.508 8.506,-10.01L8.506,-7.783L6.299,-7.783C5.781,-7.783 5.449,-7.52 5.449,-7.041C5.449,-6.572 5.801,-6.318 6.299,-6.318L8.506,-6.318L8.506,-4.258C8.506,-3.76 8.76,-3.428 9.229,-3.428Z" style="fill-rule:nonzero;"/>
        </g>
        <g transform="matrix(1,0,0,1,281.506,1933)">
            <path d="M11.709,2.91C17.158,2.91 21.67,-1.602 21.67,-7.051C21.67,-12.49 17.148,-17.012 11.699,-17.012C6.26,-17.012 1.748,-12.49 1.748,-7.051C1.748,-1.602 6.27,2.91 11.709,2.91ZM11.709,1.25C7.1,1.25 3.418,-2.441 3.418,-7.051C3.418,-11.65 7.09,-15.352 11.699,-15.352C16.309,-15.352 20,-11.65 20.01,-7.051C20.02,-2.441 16.318,1.25 11.709,1.25ZM11.69,-2.412C12.207,-2.412 12.52,-2.773 12.52,-3.34L12.52,-6.23L15.576,-6.23C16.123,-6.23 16.504,-6.514 16.504,-7.031C16.504,-7.559 16.143,-7.861 15.576,-7.861L12.52,-7.861L12.52,-10.928C12.52,-11.504 12.207,-11.855 11.69,-11.855C11.172,-11.855 10.879,-11.484 10.879,-10.928L10.879,-7.861L7.832,-7.861C7.266,-7.861 6.895,-7.559 6.895,-7.031C6.895,-6.514 7.285,-6.23 7.832,-6.23L10.879,-6.23L10.879,-3.34C10.879,-2.793 11.172,-2.412 11.69,-2.412Z" style="fill-rule:nonzero;"/>
        </g>
        <g transform="matrix(1,0,0,1,304.924,1933)">
            <path d="M14.971,5.674C21.934,5.674 27.695,-0.078 27.695,-7.041C27.695,-14.004 21.924,-19.756 14.961,-19.756C8.008,-19.756 2.256,-14.004 2.256,-7.041C2.256,-0.078 8.018,5.674 14.971,5.674ZM14.971,3.857C8.936,3.857 4.082,-1.006 4.082,-7.041C4.082,-13.076 8.926,-17.94 14.961,-17.94C21.006,-17.94 25.859,-13.076 25.869,-7.041C25.879,-1.006 21.016,3.857 14.971,3.857ZM14.951,-1.064C15.518,-1.064 15.869,-1.455 15.869,-2.061L15.869,-6.133L20.107,-6.133C20.693,-6.133 21.113,-6.465 21.113,-7.021C21.113,-7.598 20.723,-7.939 20.107,-7.939L15.869,-7.939L15.869,-12.188C15.869,-12.803 15.518,-13.193 14.951,-13.193C14.385,-13.193 14.063,-12.783 14.063,-12.188L14.063,-7.939L9.834,-7.939C9.219,-7.939 8.809,-7.598 8.809,-7.021C8.809,-6.465 9.238,-6.133 9.834,-6.133L14.063,-6.133L14.063,-2.061C14.063,-1.475 14.385,-1.064 14.951,-1.064Z" style="fill-rule:nonzero;"/>
        </g>
        <g transform="matrix(1,0,0,1,263,1953)">
            <text x="0px" y="0px" style="font-family:'SFProDisplay-Bold', 'SF Pro Display';font-weight:700;font-size:16px;">Design V<tspan x="63.789px " y="0px ">a</tspan>riations</text>
        </g>
        <g transform="matrix(1,0,0,1,263,1971)">
            <text x="0px" y="0px" style="font-family:'SFProDisplay-Regular', 'SF Pro Display';font-size:16px;">Symbols ar<tspan x="74.047px " y="0px ">e</tspan> suppor<tspan x="132.711px 137.297px " y="0px 0px ">te</tspan>d in up t<tspan x="197.695px " y="0px ">o</tspan> nine weights and thr<tspan x="343.523px " y="0px ">e</tspan>e scales.</text>
        </g>
        <g transform="matrix(1,0,0,1,263,1989)">
            <text x="0px" y="0px" style="font-family:'SFProDisplay-Regular', 'SF Pro Display';font-size:16px;">F<tspan x="8.133px " y="0px ">o</tspan>r optimal lay<tspan x="96.477px " y="0px ">o</tspan>ut with t<tspan x="157.523px 165.563px " y="0px 0px ">ex</tspan>t and other symbols,<tspan x="307.547px 310.828px 318.32px 326.516px 331.758px " y="0px 0px 0px 0px 0px "> vert</tspan>ically align</text>
        </g>
        <g transform="matrix(1,0,0,1,263,2007)">
            <text x="0px" y="0px" style="font-family:'SFProDisplay-Regular', 'SF Pro Display';font-size:16px;">symbols with the adjacent t<tspan x="181.305px 189.344px " y="0px 0px ">ex</tspan>t.</text>
        </g>
        <rect x="776" y="1919" width="3" height="14" style="fill:rgb(0,174,239);fill-opacity:0.4;"/>
        <g transform="matrix(1,0,0,1,779,1933)">
            <path d="M10.527,0L12.373,0L7.178,-14.092L5.439,-14.092L0.244,0L2.09,0L3.506,-4.033L9.111,-4.033L10.527,0ZM6.279,-11.953L6.338,-11.953L8.594,-5.527L4.023,-5.527L6.279,-11.953Z" style="fill-rule:nonzero;"/>
        </g>
        <rect x="791.617" y="1919" width="3" height="14" style="fill:rgb(0,174,239);fill-opacity:0.4;"/>
        <g transform="matrix(1,0,0,1,776,1953)">
            <text x="0px" y="0px" style="font-family:'SFProDisplay-Bold', 'SF Pro Display';font-weight:700;font-size:16px;">M<tspan x="13.641px 22.398px 27.945px " y="0px 0px 0px ">arg</tspan>ins</text>
        </g>
        <g transform="matrix(1,0,0,1,776,1971)">
            <text x="0px" y="0px" style="font-family:'SFProDisplay-Regular', 'SF Pro Display';font-size:16px;">L<tspan x="8.156px " y="0px ">e</tspan>ading and tr<tspan x="95.203px " y="0px ">a</tspan>iling mar<tspan x="158.953px " y="0px ">g</tspan>ins on the left and right side of each symbol</text>
        </g>
        <g transform="matrix(1,0,0,1,776,1989)">
            <text x="0px" y="0px" style="font-family:'SFProDisplay-Regular', 'SF Pro Display';font-size:16px;">can be adjust<tspan x="88.719px " y="0px ">e</tspan>d b<tspan x="117.688px " y="0px ">y</tspan> modifying the width of the blue r<tspan x="341.977px " y="0px ">e</tspan>ct<tspan x="362.852px " y="0px ">a</tspan>ngles.</text>
        </g>
        <g transform="matrix(1,0,0,1,776,2007)">
            <text x="0px" y="0px" style="font-family:'SFProDisplay-Regular', 'SF Pro Display';font-size:16px;">Modifications ar<tspan x="106.391px " y="0px ">e</tspan> aut<tspan x="138.914px " y="0px ">o</tspan>matically applied pr<tspan x="275.82px " y="0px ">o</tspan>por<tspan x="306.836px " y="0px ">t</tspan>ionally t<tspan x="362.055px " y="0px ">o</tspan> all</text>
        </g>
        <g transform="matrix(1,0,0,1,776,2025)">
            <text x="0px" y="0px" style="font-family:'SFProDisplay-Regular', 'SF Pro Display';font-size:16px;">scales and weights.</text>
        </g>
        <g transform="matrix(1,0,0,1,1289,1933)">
            <path d="M2.832,3.115L4.375,4.658C5.225,5.488 6.191,5.42 7.061,4.463L17.275,-6.66C17.705,-6.367 18.096,-6.377 18.565,-6.475L19.609,-6.689L20.303,-5.996L20.254,-5.479C20.186,-4.951 20.352,-4.531 20.85,-4.033L21.66,-3.223C22.168,-2.715 22.822,-2.686 23.301,-3.164L26.553,-6.416C27.031,-6.895 27.012,-7.549 26.504,-8.057L25.684,-8.877C25.186,-9.375 24.775,-9.551 24.238,-9.473L23.711,-9.414L23.057,-10.078L23.34,-11.221C23.486,-11.787 23.34,-12.256 22.715,-12.861L20.303,-15.254C16.758,-18.779 12.227,-18.672 9.111,-15.537C8.691,-15.107 8.643,-14.522 8.916,-14.092C9.15,-13.721 9.629,-13.496 10.273,-13.662C11.787,-14.043 13.301,-13.926 14.785,-12.92L14.16,-11.338C13.926,-10.752 13.945,-10.273 14.18,-9.834L3.018,0.439C2.08,1.309 1.973,2.256 2.832,3.115ZM10.674,-15.147C13.34,-17.139 16.65,-16.826 19.053,-14.414L21.68,-11.807C21.914,-11.572 21.943,-11.387 21.885,-11.094L21.504,-9.531L23.076,-7.959L24.043,-8.047C24.326,-8.076 24.414,-8.057 24.639,-7.832L25.264,-7.207L22.51,-4.463L21.885,-5.078C21.66,-5.303 21.641,-5.4 21.67,-5.684L21.758,-6.641L20.195,-8.203L18.574,-7.891C18.291,-7.832 18.145,-7.832 17.91,-8.076L15.732,-10.254C15.508,-10.488 15.479,-10.625 15.605,-10.947L16.553,-13.223C14.951,-14.756 12.842,-15.605 10.801,-14.951C10.713,-14.922 10.645,-14.941 10.615,-14.98C10.586,-15.029 10.586,-15.078 10.674,-15.147ZM4.102,2.412C3.613,1.914 3.789,1.611 4.121,1.309L15.078,-8.809L16.309,-7.578L6.152,3.35C5.85,3.682 5.469,3.779 5.068,3.379L4.102,2.412Z" style="fill-rule:nonzero;"/>
        </g>
        <g transform="matrix(1,0,0,1,1289,1953)">
            <text x="0px" y="0px" style="font-family:'SFProDisplay-Bold', 'SF Pro Display';font-weight:700;font-size:16px;">Expor<tspan x="42.367px " y="0px ">t</tspan>ing</text>
        </g>
        <g transform="matrix(1,0,0,1,1289,1971)">
            <text x="0px" y="0px" style="font-family:'SFProDisplay-Regular', 'SF Pro Display';font-size:16px;">Symbols should be outlined when e<tspan x="235.273px " y="0px ">x</tspan>por<tspan x="265.305px " y="0px ">t</tspan>ing t<tspan x="298.477px " y="0px ">o</tspan> ensur<tspan x="347.289px " y="0px ">e</tspan> the</text>
        </g>
        <g transform="matrix(1,0,0,1,1289,1989)">
            <text x="0px" y="0px" style="font-family:'SFProDisplay-Regular', 'SF Pro Display';font-size:16px;">design is pr<tspan x="75.586px " y="0px ">e</tspan>serv<tspan x="111.844px " y="0px ">e</tspan>d when submitting t<tspan x="251.008px " y="0px ">o</tspan> X<tspan x="272.391px " y="0px ">c</tspan>ode.</text>
        </g>
        <g id="template-version" transform="matrix(1,0,0,1,3036,1933)">
            <text x="-94.531px" y="0px" style="font-family:'SFProDisplay-Regular', 'SF Pro Display';font-size:16px;">T<tspan x="-87.344px " y="0px ">e</tspan>mplat<tspan x="-41.625px " y="0px ">e</tspan> v<tspan x="-23.594px -20.469px -13.766px " y="0px 0px 0px ">.1.</tspan>0</text>
        </g>
        <g transform="matrix(1,0,0,1,3036,1951)">
            <text x="-231.563px" y="0px" style="font-family:'SFProDisplay-Regular', 'SF Pro Display';font-size:16px;">Gener<tspan x="-190.664px -182.633px -178.047px " y="0px 0px 0px ">ate</tspan>d fr<tspan x="-148.313px " y="0px ">o</tspan>m checkmark.squar<tspan x="-8.195px " y="0px ">e</tspan></text>
        </g>
        <g transform="matrix(1,0,0,1,3036,1969)">
            <text x="-143.086px" y="0px" style="font-family:'SFProDisplay-Regular', 'SF Pro Display';font-size:16px;">T<tspan x="-135.664px " y="0px ">y</tspan>peset at 100 points</text>
        </g>
        <g transform="matrix(1,0,0,1,263,726)">
            <text x="0px" y="0px" style="font-family:'SFProDisplay-Regular', 'SF Pro Display';font-size:16px;">Small</text>
        </g>
        <g transform="matrix(1,0,0,1,263,1156)">
            <text x="0px" y="0px" style="font-family:'SFProDisplay-Regular', 'SF Pro Display';font-size:16px;">Medium</text>
        </g>
        <g transform="matrix(1,0,0,1,263,1586)">
            <text x="0px" y="0px" style="font-family:'SFProDisplay-Regular', 'SF Pro Display';font-size:16px;">Lar<tspan x="20.961px " y="0px ">g</tspan>e</text>
        </g>
    </g>
    <g id="Guides">
        <g id="H-reference" transform="matrix(1,0,0,1,339,696)">
            <path d="M54.932,0L57.666,0L30.566,-70.459L28.076,-70.459L0.977,0L3.662,0L12.94,-24.463L45.703,-24.463L54.932,0ZM29.199,-67.09L29.443,-67.09L44.824,-26.709L13.818,-26.709L29.199,-67.09Z" style="fill:rgb(39,170,225);fill-rule:nonzero;"/>
        </g>
        <path id="Baseline-S" d="M263,696L3036,696" style="fill:none;fill-rule:nonzero;stroke:rgb(39,170,225);stroke-width:0.58px;"/>
        <path id="Capline-S" d="M263,625.541L3036,625.541" style="fill:none;fill-rule:nonzero;stroke:rgb(39,170,225);stroke-width:0.58px;"/>
        <g id="H-reference1" serif:id="H-reference" transform="matrix(1,0,0,1,339,1126)">
            <path d="M54.932,0L57.666,0L30.566,-70.459L28.076,-70.459L0.977,0L3.662,0L12.94,-24.463L45.703,-24.463L54.932,0ZM29.199,-67.09L29.443,-67.09L44.824,-26.709L13.818,-26.709L29.199,-67.09Z" style="fill:rgb(39,170,225);fill-rule:nonzero;"/>
        </g>
        <path id="Baseline-M" d="M263,1126L3036,1126" style="fill:none;fill-rule:nonzero;stroke:rgb(39,170,225);stroke-width:0.58px;"/>
        <path id="Capline-M" d="M263,1055.54L3036,1055.54" style="fill:none;fill-rule:nonzero;stroke:rgb(39,170,225);stroke-width:0.58px;"/>
        <g id="H-reference2" serif:id="H-reference" transform="matrix(1,0,0,1,339,1556)">
            <path d="M54.932,0L57.666,0L30.566,-70.459L28.076,-70.459L0.977,0L3.662,0L12.94,-24.463L45.703,-24.463L54.932,0ZM29.199,-67.09L29.443,-67.09L44.824,-26.709L13.818,-26.709L29.199,-67.09Z" style="fill:rgb(39,170,225);fill-rule:nonzero;"/>
        </g>
        <path id="Baseline-L" d="M263,1556L3036,1556" style="fill:none;fill-rule:nonzero;stroke:rgb(39,170,225);stroke-width:0.58px;"/>
        <path id="Capline-L" d="M263,1485.54L3036,1485.54" style="fill:none;fill-rule:nonzero;stroke:rgb(39,170,225);stroke-width:0.58px;"/>
        <rect id="left-margin" x="1392.45" y="1030.79" width="12.451" height="119.336" style="fill:rgb(0,174,239);fill-opacity:0.4;"/>
        <rect id="right-margin" x="1494.79" y="1030.79" width="12.451" height="119.336" style="fill:rgb(0,174,239);fill-opacity:0.4;"/>
    </g>
    <g id="Symbols">
        <g id="Black-L" transform="matrix(1.16994,0,0,1.25532,1439.38,288.624)">
            <path d="M1277.47,933.041C1279.99,933.3 1279.76,933.495 1280.92,934.273L1326,966.749C1328.02,968.311 1328.9,970.821 1328.21,973.221L1310.99,1025.77C1310.09,1028.2 1307.67,1029.9 1304.86,1030L1249.14,1030C1246.38,1029.9 1243.93,1028.24 1243.01,1025.77L1225.79,973.221C1225.12,970.87 1225.95,968.338 1228,966.749L1273.08,934.273C1274.27,933.478 1274.99,932.957 1277.47,933.041ZM1239.35,973.679L1253.88,1018.05L1300.12,1018.05L1314.65,973.679L1277,946.552C1264.45,955.594 1251.9,964.636 1239.35,973.679Z"/>
        </g>
        <g id="Heavy-L" transform="matrix(1.17986,0,0,1.26596,1130.01,278.135)">
            <path d="M1277.64,933.9C1278.62,934.043 1279.54,934.388 1280.37,934.938L1325.45,967.414C1327.18,968.769 1327.92,970.923 1327.35,972.976L1310.13,1025.52C1309.35,1027.61 1307.26,1029.07 1304.86,1029.16L1249.14,1029.16C1246.77,1029.07 1244.66,1027.63 1243.87,1025.52L1226.65,972.976C1226.08,970.937 1226.81,968.778 1228.55,967.414L1273.63,934.938C1274.72,934.216 1275.39,933.737 1277.64,933.9ZM1238.3,973.369L1253.22,1018.89L1300.78,1018.89L1315.7,973.369L1277,945.49C1264.1,954.783 1251.2,964.076 1238.3,973.369Z"/>
        </g>
        <g id="Bold-L" transform="matrix(1.16994,0,0,1.25532,846.015,288.624)">
            <path d="M1277.62,934.657C1279.13,934.906 1279.23,935.109 1279.88,935.534L1324.95,968.01C1326.43,969.169 1327.07,970.987 1326.58,972.756L1309.36,1025.3C1308.68,1027.08 1306.94,1028.32 1304.86,1028.4L1249.14,1028.4C1247.12,1028.33 1245.34,1027.13 1244.64,1025.3L1227.42,972.756C1226.94,971.017 1227.55,969.189 1229.05,968.01L1274.12,935.534C1275.7,934.499 1275.74,934.503 1277.62,934.657ZM1237.37,973.091L1252.62,1019.64L1301.38,1019.64L1316.63,973.091L1277,944.538C1263.79,954.056 1250.58,963.574 1237.37,973.091Z"/>
        </g>
        <g id="Semibold-L" transform="matrix(1.16994,0,0,1.25532,549.248,288.624)">
            <path d="M1277.38,935.233C1278.78,935.418 1278.88,935.613 1279.48,936.006L1324.56,968.482C1325.84,969.492 1326.38,971.046 1325.96,972.581L1308.74,1025.13C1308.15,1026.67 1306.64,1027.73 1304.86,1027.81L1249.14,1027.81C1247.38,1027.73 1245.86,1026.7 1245.26,1025.13L1228.04,972.581C1227.62,971.071 1228.14,969.509 1229.44,968.482L1274.52,936.006C1275.27,935.515 1275.66,935.158 1277.38,935.233ZM1236.62,972.871L1252.14,1020.24L1301.86,1020.24L1317.38,972.871L1277,943.783C1263.54,953.479 1250.08,963.175 1236.62,972.871Z"/>
        </g>
        <g id="Medium-L" transform="matrix(1.16994,0,0,1.25532,252.481,288.624)">
            <path d="M1277.34,935.629C1277.96,935.712 1278.3,935.721 1279.22,936.321L1324.3,968.798C1325.44,969.701 1325.93,971.091 1325.55,972.465L1308.33,1025.01C1307.8,1026.4 1306.46,1027.34 1304.86,1027.41L1249.14,1027.41C1247.56,1027.34 1246.21,1026.42 1245.67,1025.01L1228.45,972.465C1228.08,971.113 1228.54,969.716 1229.7,968.798L1274.78,936.321C1275.45,935.882 1275.81,935.562 1277.34,935.629ZM1236.13,972.724L1251.83,1020.64L1302.17,1020.64L1317.87,972.724L1277,943.279C1263.38,953.094 1249.75,962.909 1236.13,972.724Z"/>
        </g>
        <g id="Regular-L" transform="matrix(1.16994,0,0,1.25532,-44.0194,288.624)">
            <path d="M1277.33,936.229C1277.78,936.299 1277.99,936.256 1278.83,936.794L1323.91,969.27C1325.27,970.37 1325.27,971.051 1324.94,972.291L1307.72,1024.84C1307.28,1025.98 1306.62,1026.72 1304.86,1026.81L1249.14,1026.81C1247.3,1026.72 1246.79,1026.14 1246.28,1024.84L1229.06,972.291C1228.77,971.187 1228.79,970.316 1230.09,969.27L1275.17,936.794C1276.31,936.063 1276.39,936.181 1277.33,936.229ZM1235.39,972.504L1251.35,1021.24L1302.65,1021.24L1318.61,972.504L1277,942.524C1263.13,952.517 1249.26,962.511 1235.39,972.504Z"/>
        </g>
        <g id="Light-L" transform="matrix(1.16994,0,0,1.25532,-340.882,288.624)">
            <path d="M1277.28,936.625C1277.67,936.685 1277.85,936.648 1278.57,937.109L1323.65,969.585C1324.82,970.528 1324.81,971.112 1324.53,972.174L1307.31,1024.72C1306.75,1026.14 1306.11,1026.35 1304.86,1026.41L1249.14,1026.41C1248.04,1026.35 1247.23,1026.08 1246.69,1024.72L1229.47,972.174C1229.1,970.774 1229.46,970.301 1230.35,969.585L1275.43,937.109C1276.41,936.482 1276.48,936.584 1277.28,936.625ZM1234.89,972.357L1251.04,1021.63L1302.96,1021.63L1319.11,972.357L1277,942.021C1262.96,952.133 1248.93,962.245 1234.89,972.357Z"/>
        </g>
        <g id="Thin-L" transform="matrix(1.16994,0,0,1.25532,-638.01,288.624)">
            <path d="M1277.22,937.421C1277.74,937.517 1277.78,937.573 1278.05,937.739L1323.12,970.216C1323.92,970.875 1323.94,971.041 1323.71,971.942L1306.5,1024.49C1306.09,1025.47 1305.9,1025.55 1304.86,1025.62L1249.14,1025.62C1248.02,1025.54 1247.88,1025.4 1247.51,1024.49L1230.29,971.942C1230.04,970.974 1230.13,970.829 1230.88,970.216L1275.95,937.739C1276.24,937.561 1276.31,937.365 1277.22,937.421ZM1233.9,972.064L1250.4,1022.43L1303.6,1022.43L1320.1,972.064L1277,941.014C1262.63,951.364 1248.27,961.714 1233.9,972.064Z"/>
        </g>
        <g id="Ultralight-L" transform="matrix(1.16994,0,0,1.25532,-934.308,288.624)">
            <path d="M1277.17,938.018C1277.28,938.043 1277.37,938.043 1277.65,938.212L1322.73,970.688C1323.25,971.135 1323.19,971.375 1323.1,971.767L1305.88,1024.32C1305.6,1024.96 1305.31,1024.98 1304.86,1025.02L1249.14,1025.02C1248.69,1024.98 1248.39,1024.93 1248.12,1024.32L1230.9,971.767C1230.75,971.122 1230.95,970.96 1231.27,970.688L1276.35,938.212C1276.59,938.065 1276.87,937.994 1277.17,938.018ZM1233.16,971.843L1249.93,1023.03L1304.07,1023.03L1320.84,971.843L1277,940.259C1262.39,950.787 1247.77,961.315 1233.16,971.843Z"/>
        </g>
        <g id="Black-M" transform="matrix(0.907203,0,0,0.973404,1774.9,135.496)">
            <path d="M1277.54,931.312C1280.23,931.559 1280.67,931.971 1282.06,932.904L1327.13,965.38C1329.75,967.392 1330.87,970.693 1329.99,973.727L1312.77,1026.27C1312.25,1027.7 1312.04,1027.9 1311.61,1028.47C1310.1,1030.47 1307.52,1031.65 1304.86,1031.73L1249.14,1031.73C1245.92,1031.63 1242.91,1029.89 1241.6,1027.19C1241.41,1026.79 1241.38,1026.69 1241.23,1026.27L1224.02,973.727C1223.13,970.678 1224.27,967.38 1226.87,965.38L1271.94,932.904C1273.48,931.868 1274.47,931.218 1277.54,931.312ZM1241.5,974.317L1255.26,1016.32L1298.74,1016.32L1312.5,974.317L1277,948.739C1265.16,957.265 1253.33,965.791 1241.5,974.317Z"/>
        </g>
        <g id="Heavy-M" transform="matrix(0.907203,0,0,0.973404,1478.19,135.496)">
            <path d="M1277.74,932.358C1280.4,932.703 1280.14,932.884 1281.38,933.717L1326.46,966.193C1328.71,967.939 1329.7,970.744 1328.93,973.427L1311.71,1025.97C1310.7,1028.71 1307.99,1030.6 1304.86,1030.7L1249.14,1030.7C1246.04,1030.6 1243.31,1028.73 1242.29,1025.97L1225.07,973.427C1224.31,970.788 1225.25,967.968 1227.54,966.193L1272.62,933.717C1274.89,932.191 1275.54,932.216 1277.74,932.358ZM1240.22,973.938L1254.44,1017.35L1299.56,1017.35L1313.78,973.938L1277,947.44C1264.74,956.273 1252.48,965.105 1240.22,973.938Z"/>
        </g>
        <g id="Bold-M" transform="matrix(0.907203,0,0,0.973404,1181.54,135.496)">
            <path d="M1277.7,933.388C1278.79,933.545 1279.8,933.925 1280.71,934.53L1325.79,967.006C1327.7,968.492 1328.52,970.871 1327.88,973.127L1310.66,1025.67C1309.8,1027.97 1307.47,1029.58 1304.86,1029.67L1249.14,1029.67C1246.53,1029.58 1244.21,1028.01 1243.34,1025.67L1226.12,973.127C1225.49,970.885 1226.29,968.501 1228.21,967.006L1273.29,934.53C1275.36,933.156 1275.85,933.254 1277.7,933.388ZM1238.94,973.559L1253.63,1018.37L1300.37,1018.37L1315.06,973.559L1277,946.142C1264.31,955.281 1251.63,964.42 1238.94,973.559Z"/>
        </g>
        <g id="Semibold-M" transform="matrix(0.907203,0,0,0.973404,884.769,135.496)">
            <path d="M1277.43,934.137C1279.35,934.359 1279.21,934.487 1280.2,935.139L1325.28,967.615C1326.93,968.903 1327.64,970.92 1327.09,972.901L1309.87,1025.45C1309.12,1027.45 1307.14,1028.82 1304.86,1028.9L1249.14,1028.9C1246.87,1028.82 1244.88,1027.45 1244.13,1025.45L1226.91,972.901C1226.37,970.964 1227.04,968.932 1228.72,967.615L1273.8,935.139C1275.45,934.045 1275.49,934.062 1277.43,934.137ZM1237.99,973.275L1253.02,1019.14L1300.99,1019.14L1316.02,973.275L1277,945.168C1264,954.537 1250.99,963.906 1237.99,973.275Z"/>
        </g>
        <g id="Medium-M" transform="matrix(0.907203,0,0,0.973404,588.002,135.496)">
            <path d="M1277.62,934.672C1279.12,934.92 1279.22,935.123 1279.87,935.546L1324.94,968.022C1326.41,969.177 1327.05,970.988 1326.56,972.751L1309.34,1025.3C1308.67,1027.08 1306.93,1028.31 1304.86,1028.39L1249.14,1028.39C1247.11,1028.31 1245.35,1027.12 1244.66,1025.3L1227.44,972.751C1226.96,971.018 1227.56,969.197 1229.06,968.022L1274.13,935.546C1275.7,934.515 1275.75,934.518 1277.62,934.672ZM1237.35,973.086L1252.61,1019.66L1301.39,1019.66L1316.65,973.086L1277,944.519C1263.78,954.041 1250.57,963.563 1237.35,973.086Z"/>
        </g>
        <g id="Regular-M" transform="matrix(0.907203,0,0,0.973404,291.502,135.496)">
            <path d="M1277.36,935.42C1278.02,935.508 1278.38,935.518 1279.36,936.155L1324.44,968.631C1325.65,969.591 1326.17,971.067 1325.77,972.526L1308.55,1025.07C1307.99,1026.54 1306.55,1027.55 1304.86,1027.62L1249.14,1027.62C1247.47,1027.55 1246.02,1026.56 1245.45,1025.07L1228.23,972.526C1227.84,971.091 1228.33,969.607 1229.56,968.631L1274.64,936.155C1275.9,935.33 1276.22,935.37 1277.36,935.42ZM1236.39,972.802L1252,1020.43L1302,1020.43L1317.61,972.802L1277,943.545C1263.46,953.297 1249.93,963.049 1236.39,972.802Z"/>
        </g>
        <g id="Light-M" transform="matrix(0.907203,0,0,0.973404,-5.36039,135.496)">
            <path d="M1277.5,935.953C1278.6,936.163 1278.32,936.109 1279.02,936.562L1324.1,969.038C1325.56,970.205 1325.62,970.963 1325.24,972.376L1308.02,1024.92C1307.54,1026.18 1306.32,1027.04 1304.86,1027.11L1249.14,1027.11C1247.7,1027.04 1246.47,1026.2 1245.98,1024.92L1228.76,972.376C1228.43,971.144 1228.5,970.158 1229.9,969.038L1274.98,936.562C1276.15,935.804 1276.45,935.854 1277.5,935.953ZM1235.75,972.612L1251.59,1020.94L1302.41,1020.94L1318.25,972.612L1277,942.895C1263.25,952.801 1249.5,962.707 1235.75,972.612Z"/>
        </g>
        <g id="Thin-M" transform="matrix(0.907203,0,0,0.973404,-302.488,135.496)">
            <path d="M1277.39,936.978C1277.85,937.082 1277.96,937.129 1278.35,937.374L1323.43,969.851C1324.44,970.675 1324.48,970.926 1324.19,972.076L1306.97,1024.62C1306.47,1025.86 1306.19,1026 1304.86,1026.08L1249.14,1026.08C1247.73,1025.99 1247.5,1025.79 1247.03,1024.62L1229.81,972.076C1229.5,970.859 1229.62,970.63 1230.57,969.851L1275.65,937.374C1276.09,937.097 1276.3,936.856 1277.39,936.978ZM1234.48,972.234L1250.77,1021.97L1303.23,1021.97L1319.53,972.234L1277,941.597C1262.83,951.809 1248.65,962.021 1234.48,972.234Z"/>
        </g>
        <g id="Ultralight-M" transform="matrix(0.907203,0,0,0.973404,-598.787,135.496)">
            <path d="M1277.3,937.747C1277.42,937.78 1277.52,937.787 1277.84,937.984L1322.92,970.46C1323.58,971.014 1323.57,971.126 1323.4,971.851L1306.18,1024.4C1305.84,1025.21 1305.7,1025.25 1304.86,1025.31L1249.14,1025.31C1248.21,1025.24 1248.13,1025.13 1247.82,1024.4L1230.6,971.851C1230.41,971.044 1230.49,970.958 1231.08,970.46L1276.16,937.984C1276.78,937.602 1276.58,937.648 1277.3,937.747ZM1233.52,971.95L1250.16,1022.74L1303.84,1022.74L1320.48,971.95L1277,940.623C1262.51,951.065 1248.01,961.507 1233.52,971.95Z"/>
        </g>
        <g id="Black-S" transform="matrix(0.713865,0,0,0.765957,2021.79,-90.8653)">
            <path d="M1277.3,929.212C1280.61,929.389 1281.43,929.896 1283.43,931.253L1328.5,963.729C1329.94,964.828 1330.1,965.105 1330.6,965.748C1332.48,968.184 1332.99,971.413 1332.13,974.336L1314.91,1026.88C1314.31,1028.54 1314.09,1028.78 1313.61,1029.44C1311.71,1032.12 1308.36,1033.72 1304.86,1033.82L1249.14,1033.82C1247.27,1033.77 1246.96,1033.63 1246.14,1033.41C1242.83,1032.49 1240.21,1029.97 1239.09,1026.88L1221.87,974.336C1220.84,970.834 1221.83,966.977 1224.58,964.469C1224.97,964.118 1225.08,964.047 1225.5,963.729L1270.58,931.253C1272.45,929.979 1273.72,929.212 1277.3,929.212ZM1244.09,975.086L1256.92,1014.23L1297.08,1014.23L1309.91,975.086L1277,951.376C1266.03,959.279 1255.06,967.183 1244.09,975.086Z"/>
        </g>
        <g id="Heavy-S" transform="matrix(0.713865,0,0,0.765957,1725.08,-90.8653)">
            <path d="M1277.86,930.551C1279.51,930.746 1280.5,930.887 1282.57,932.286L1327.65,964.762C1328.95,965.764 1329.1,966.02 1329.54,966.612C1331.12,968.716 1331.52,971.455 1330.79,973.955L1313.57,1026.5C1313.02,1028 1312.82,1028.22 1312.38,1028.81C1310.71,1031.08 1307.83,1032.43 1304.86,1032.51L1249.14,1032.51C1245.58,1032.41 1242.25,1030.46 1240.82,1027.47C1240.62,1027.05 1240.59,1026.94 1240.43,1026.5L1223.21,973.955C1222.33,970.926 1223.15,967.622 1225.52,965.437C1225.87,965.117 1225.98,965.052 1226.35,964.762L1271.43,932.286C1273.22,931.081 1274.46,930.353 1277.86,930.551ZM1242.47,974.605L1255.88,1015.54L1298.12,1015.54L1311.53,974.605L1277,949.726C1265.49,958.019 1253.98,966.312 1242.47,974.605Z"/>
        </g>
        <g id="Bold-S" transform="matrix(0.713865,0,0,0.765957,1428.43,-90.8653)">
            <path d="M1277.51,931.835C1278.98,931.971 1279.87,932.079 1281.71,933.319L1326.79,965.795C1329.23,967.679 1330.28,970.699 1329.45,973.573L1312.23,1026.12C1311.14,1029.07 1308.24,1031.1 1304.86,1031.2L1249.14,1031.2C1245.8,1031.1 1242.87,1029.1 1241.77,1026.12L1224.55,973.573C1223.73,970.721 1224.75,967.694 1227.21,965.795L1272.29,933.319C1274.6,931.763 1275.26,931.766 1277.51,931.835ZM1240.85,974.123L1254.84,1016.84L1299.16,1016.84L1313.15,974.123L1277,948.076C1264.95,956.758 1252.9,965.441 1240.85,974.123Z"/>
        </g>
        <g id="Semibold-S" transform="matrix(0.713865,0,0,0.765957,1131.66,-90.8653)">
            <path d="M1277.49,932.815C1280.1,933.084 1279.86,933.286 1281.07,934.094L1326.15,966.57C1328.25,968.2 1329.16,970.796 1328.44,973.287L1311.22,1025.84C1310.28,1028.38 1307.77,1030.13 1304.86,1030.22L1249.14,1030.22C1246.26,1030.13 1243.72,1028.4 1242.78,1025.84L1225.56,973.287C1224.85,970.829 1225.72,968.219 1227.85,966.57L1272.93,934.094C1274.17,933.268 1274.91,932.728 1277.49,932.815ZM1239.63,973.762L1254.07,1017.82L1299.93,1017.82L1314.37,973.762L1277,946.838C1264.54,955.813 1252.09,964.788 1239.63,973.762Z"/>
        </g>
        <g id="Medium-S" transform="matrix(0.713865,0,0,0.765957,834.895,-90.8653)">
            <path d="M1277.23,933.456C1279.72,933.636 1279.5,933.855 1280.64,934.61L1325.72,967.086C1327.6,968.548 1328.4,970.882 1327.77,973.097L1310.55,1025.64C1309.71,1027.92 1307.47,1029.48 1304.86,1029.57L1249.14,1029.57C1246.56,1029.48 1244.3,1027.94 1243.45,1025.64L1226.23,973.097C1225.6,970.893 1226.39,968.555 1228.28,967.086L1273.36,934.61C1274.39,933.923 1274.97,933.456 1277.23,933.456ZM1238.82,973.522L1253.55,1018.48L1300.45,1018.48L1315.18,973.522L1277,946.013C1264.27,955.183 1251.54,964.352 1238.82,973.522Z"/>
        </g>
        <g id="Regular-S" transform="matrix(0.713865,0,0,0.765957,538.395,-90.8653)">
            <path d="M1277.4,934.446C1279.2,934.654 1279.08,934.774 1280,935.385L1325.08,967.861C1326.62,969.066 1327.29,970.955 1326.77,972.811L1309.55,1025.36C1308.84,1027.23 1307.03,1028.51 1304.86,1028.59L1249.14,1028.59C1247.02,1028.51 1245.17,1027.27 1244.45,1025.36L1227.23,972.811C1226.72,970.996 1227.37,969.075 1228.92,967.861L1274,935.385C1275.55,934.36 1275.59,934.376 1277.4,934.446ZM1237.6,973.161L1252.77,1019.45L1301.23,1019.45L1316.4,973.161L1277,944.776C1263.87,954.237 1250.73,963.699 1237.6,973.161Z"/>
        </g>
        <g id="Light-S" transform="matrix(0.713865,0,0,0.765957,241.533,-90.8653)">
            <path d="M1277.55,935.117C1278.9,935.34 1278.99,935.522 1279.57,935.901L1324.65,968.377C1325.97,969.423 1326.53,971.031 1326.1,972.62L1308.88,1025.17C1308.27,1026.77 1306.71,1027.86 1304.86,1027.94L1249.14,1027.94C1247.32,1027.86 1245.74,1026.79 1245.12,1025.17L1227.9,972.62C1227.47,971.056 1228.01,969.44 1229.35,968.377L1274.43,935.901C1275.84,934.977 1275.88,934.98 1277.55,935.117ZM1236.79,972.92L1252.25,1020.11L1301.75,1020.11L1317.21,972.92L1277,943.95C1263.6,953.607 1250.19,963.264 1236.79,972.92Z"/>
        </g>
        <g id="Thin-S" transform="matrix(0.713865,0,0,0.765957,-55.5954,-90.8653)">
            <path d="M1277.31,936.405C1278.32,936.562 1278.08,936.524 1278.71,936.934L1323.79,969.41C1324.66,970.107 1325.14,970.785 1324.76,972.239L1307.54,1024.79C1306.95,1026.3 1306.25,1026.57 1304.86,1026.63L1249.14,1026.63C1247.42,1026.55 1246.94,1026.01 1246.46,1024.79L1229.24,972.239C1228.97,971.205 1228.99,970.39 1230.21,969.41L1275.29,936.934C1276.35,936.249 1276.43,936.36 1277.31,936.405ZM1235.17,972.439L1251.21,1021.41L1302.79,1021.41L1318.83,972.439L1277,942.3C1263.06,952.346 1249.11,962.393 1235.17,972.439Z"/>
        </g>
        <g id="Ultralight-S" transform="matrix(0.713865,0,0,0.765957,-351.894,-90.8653)">
            <path d="M1277.23,937.382C1277.76,937.481 1277.8,937.538 1278.07,937.709L1323.15,970.185C1323.97,970.86 1323.98,971.031 1323.75,971.953L1306.54,1024.5C1306.12,1025.5 1305.93,1025.59 1304.86,1025.66L1249.14,1025.66C1247.99,1025.58 1247.85,1025.43 1247.46,1024.5L1230.25,971.953C1230,970.962 1230.09,970.813 1230.85,970.185L1275.93,937.709C1276.22,937.526 1276.3,937.325 1277.23,937.382ZM1233.95,972.078L1250.44,1022.39L1303.56,1022.39L1320.05,972.078L1277,941.063C1262.65,951.401 1248.3,961.739 1233.95,972.078Z"/>
        </g>
    </g>
</svg>
